<?xml version="1.0" encoding="UTF-8" standalone="no"?>
<svg
   width="176"
   height="32"
   viewBox="0 0 176 32"
   fill="none"
   version="1.1"
   id="svg103"
   sodipodi:docname="logo-dark.svg"
   inkscape:version="1.2.2 (732a01da63, 2022-12-09, custom)"
   xmlns:inkscape="http://www.inkscape.org/namespaces/inkscape"
   xmlns:sodipodi="http://sodipodi.sourceforge.net/DTD/sodipodi-0.dtd"
   xmlns="http://www.w3.org/2000/svg"
   xmlns:svg="http://www.w3.org/2000/svg">
  <sodipodi:namedview
     id="namedview105"
     pagecolor="#ffffff"
     bordercolor="#000000"
     borderopacity="0.25"
     inkscape:showpageshadow="2"
     inkscape:pageopacity="0.0"
     inkscape:pagecheckerboard="0"
     inkscape:deskcolor="#d1d1d1"
     showgrid="false"
     showguides="true"
     inkscape:zoom="5.2631243"
     inkscape:cx="61.085389"
     inkscape:cy="25.365162"
     inkscape:window-width="1846"
     inkscape:window-height="1016"
     inkscape:window-x="0"
     inkscape:window-y="0"
     inkscape:window-maximized="1"
     inkscape:current-layer="svg103">
    <sodipodi:guide
       position="30.780196,25.539959"
       orientation="0,-1"
       id="guide396"
       inkscape:locked="false" />
    <sodipodi:guide
       position="84.681165,3.220754"
       orientation="0,-1"
       id="guide398"
       inkscape:locked="false" />
    <sodipodi:guide
       position="132.62085,47.200097"
       orientation="1,0"
       id="guide400"
       inkscape:locked="false" />
  </sodipodi:namedview>
  <path
     d="m 143.87025,8.6644888 c 0,-4.65082 3.77023,-8.42105001 8.42105,-8.42105001 h 15.15785 c 4.6509,0 8.4211,3.77023001 8.4211,8.42105001 V 23.822339 c 0,4.6509 -3.7702,8.4211 -8.4211,8.4211 H 152.2913 c -4.65082,0 -8.42105,-3.7702 -8.42105,-8.4211 z"
     fill="#3c50e0"
     id="path36" />
  <g
     filter="url(#filter0_d_506_10589)"
     id="g40"
     transform="translate(143.87025,0.24343879)">
    <path
       d="m 8.42139,8.42127 c 0,-0.93016 0.75404,-1.68421 1.68421,-1.68421 v 0 c 0.9302,0 1.6842,0.75405 1.6842,1.68421 V 23.5792 c 0,0.9301 -0.754,1.6842 -1.6842,1.6842 v 0 c -0.93017,0 -1.68421,-0.7541 -1.68421,-1.6842 z"
       fill="#ffffff"
       id="path38" />
  </g>
  <g
     opacity="0.9"
     filter="url(#filter1_d_506_10589)"
     id="g44"
     transform="translate(143.87025,0.24343879)">
    <path
       d="m 14.7368,15.1576 c 0,-0.9302 0.7541,-1.6842 1.6842,-1.6842 v 0 c 0.9302,0 1.6842,0.754 1.6842,1.6842 v 8.421 c 0,0.9302 -0.754,1.6843 -1.6842,1.6843 v 0 c -0.9301,0 -1.6842,-0.7541 -1.6842,-1.6843 z"
       fill="#ffffff"
       id="path42" />
  </g>
  <g
     opacity="0.7"
     filter="url(#filter2_d_506_10589)"
     id="g48"
     transform="translate(143.87025,0.24343879)">
    <path
       d="m 21.0522,10.9469 c 0,-0.9302 0.7541,-1.6842 1.6843,-1.6842 v 0 c 0.9301,0 1.6842,0.754 1.6842,1.6842 v 12.6316 c 0,0.9301 -0.7541,1.6842 -1.6842,1.6842 v 0 c -0.9302,0 -1.6843,-0.7541 -1.6843,-1.6842 z"
       fill="#ffffff"
       id="path46" />
  </g>
  <defs
     id="defs101">
    <filter
       id="filter0_d_506_10589"
       x="7.42139"
       y="6.23706"
       width="5.36865"
       height="20.5264"
       filterUnits="userSpaceOnUse"
       color-interpolation-filters="sRGB">
      <feFlood
         flood-opacity="0"
         result="BackgroundImageFix"
         id="feFlood50" />
      <feColorMatrix
         in="SourceAlpha"
         type="matrix"
         values="0 0 0 0 0 0 0 0 0 0 0 0 0 0 0 0 0 0 127 0"
         result="hardAlpha"
         id="feColorMatrix52" />
      <feOffset
         dy="0.5"
         id="feOffset54" />
      <feGaussianBlur
         stdDeviation="0.5"
         id="feGaussianBlur56" />
      <feComposite
         in2="hardAlpha"
         operator="out"
         id="feComposite58" />
      <feColorMatrix
         type="matrix"
         values="0 0 0 0 0 0 0 0 0 0 0 0 0 0 0 0 0 0 0.12 0"
         id="feColorMatrix60" />
      <feBlend
         mode="normal"
         in2="BackgroundImageFix"
         result="effect1_dropShadow_506_10589"
         id="feBlend62" />
      <feBlend
         mode="normal"
         in="SourceGraphic"
         in2="effect1_dropShadow_506_10589"
         result="shape"
         id="feBlend64" />
    </filter>
    <filter
       id="filter1_d_506_10589"
       x="13.7368"
       y="12.9734"
       width="5.36865"
       height="13.7896"
       filterUnits="userSpaceOnUse"
       color-interpolation-filters="sRGB">
      <feFlood
         flood-opacity="0"
         result="BackgroundImageFix"
         id="feFlood67" />
      <feColorMatrix
         in="SourceAlpha"
         type="matrix"
         values="0 0 0 0 0 0 0 0 0 0 0 0 0 0 0 0 0 0 127 0"
         result="hardAlpha"
         id="feColorMatrix69" />
      <feOffset
         dy="0.5"
         id="feOffset71" />
      <feGaussianBlur
         stdDeviation="0.5"
         id="feGaussianBlur73" />
      <feComposite
         in2="hardAlpha"
         operator="out"
         id="feComposite75" />
      <feColorMatrix
         type="matrix"
         values="0 0 0 0 0 0 0 0 0 0 0 0 0 0 0 0 0 0 0.12 0"
         id="feColorMatrix77" />
      <feBlend
         mode="normal"
         in2="BackgroundImageFix"
         result="effect1_dropShadow_506_10589"
         id="feBlend79" />
      <feBlend
         mode="normal"
         in="SourceGraphic"
         in2="effect1_dropShadow_506_10589"
         result="shape"
         id="feBlend81" />
    </filter>
    <filter
       id="filter2_d_506_10589"
       x="20.0522"
       y="8.7627"
       width="5.36865"
       height="18"
       filterUnits="userSpaceOnUse"
       color-interpolation-filters="sRGB">
      <feFlood
         flood-opacity="0"
         result="BackgroundImageFix"
         id="feFlood84" />
      <feColorMatrix
         in="SourceAlpha"
         type="matrix"
         values="0 0 0 0 0 0 0 0 0 0 0 0 0 0 0 0 0 0 127 0"
         result="hardAlpha"
         id="feColorMatrix86" />
      <feOffset
         dy="0.5"
         id="feOffset88" />
      <feGaussianBlur
         stdDeviation="0.5"
         id="feGaussianBlur90" />
      <feComposite
         in2="hardAlpha"
         operator="out"
         id="feComposite92" />
      <feColorMatrix
         type="matrix"
         values="0 0 0 0 0 0 0 0 0 0 0 0 0 0 0 0 0 0 0.12 0"
         id="feColorMatrix94" />
      <feBlend
         mode="normal"
         in2="BackgroundImageFix"
         result="effect1_dropShadow_506_10589"
         id="feBlend96" />
      <feBlend
         mode="normal"
         in="SourceGraphic"
         in2="effect1_dropShadow_506_10589"
         result="shape"
         id="feBlend98" />
    </filter>
  </defs>
  <g
     aria-label="محرم "
     id="text456"
     style="font-size:26.6667px;line-height:0ex;font-family:Aviny;-inkscape-font-specification:Aviny;direction:rtl;fill-rule:evenodd;stroke:#000000;stroke-width:2">
    <path
       d="m 131.43476,16.547703 q 0,1.705732 -1.09375,2.916671 -1.11979,1.263022 -2.81251,1.263022 -2.13541,0 -3.47656,-2.057294 -0.89844,1.966148 -2.39584,1.966148 h -0.83333 v -5.911466 h 0.42969 q 1.64062,0 1.70573,-1.028647 0.0781,-1.367189 0.76823,-2.395836 1.04166,-1.5625021 3.09896,-1.5625021 2.47396,0 3.71094,2.6041701 0.89844,1.888023 0.89844,4.205734 z m -2.05729,-1.054689 q 0,-0.833334 -0.45573,-1.796877 -0.54688,-1.158855 -1.27605,-1.158855 -0.39062,0 -0.65104,0.3125 -0.26042,0.29948 -0.26042,0.703126 0,0.989584 0.42969,1.927086 0.54688,1.197918 1.48438,1.197918 0.72917,0 0.72917,-1.184898 z"
       style="font-family:'B Titr';-inkscape-font-specification:'B Titr';fill:#000000"
       id="path1023" />
    <path
       d="m 121.63006,20.63625 h -2.55209 q -3.51563,0 -4.58334,-4.010422 -1.45833,1.914065 -3.80208,2.981775 -2.25261,1.028647 -4.73959,1.028647 h -1.30209 v -5.911466 h 2.25261 q 3.78907,0 6.61459,-1.354168 -3.3724,-1.015626 -4.27084,-1.015626 -0.74219,0 -1.51042,0.690105 -0.76823,0.690105 -1.13281,0.690105 -0.74219,0 -0.74219,-1.06771 0,-1.171876 1.00261,-2.942712 1.28906,-2.2786487 3.13802,-2.2786487 1.1849,0 4.10157,1.0026055 2.91667,1.0026054 4.47917,1.0026054 h 1.4974 q 0.46875,0 0.46875,0.1953127 0,0.1171877 -0.10417,0.4427091 l -1.26302,3.98438 h -2.42188 q 0.59896,0.651042 2.46094,0.651042 h 2.40886 z"
       style="font-family:'B Titr';-inkscape-font-specification:'B Titr';fill:#000000"
       id="path1025" />
    <path
       d="m 105.43212,20.649271 h -0.71614 q -0.53386,0 -0.96355,-0.3125 v 1.145834 q 0,1.432294 -0.79427,3.203129 -0.6901,1.549482 -1.51042,2.434899 -0.28646,0.312501 -0.79427,0.312501 h -6.106777 q -1.080731,0 -1.080731,-0.885418 0,-0.481771 0.45573,-0.703126 1.718752,-0.820313 4.244797,-2.552086 3.281251,-2.239587 3.281251,-3.190109 0,-0.781251 -2.929688,-3.515629 l 2.083338,-4.296881 q 0.19531,-0.390625 0.48177,-0.09115 1.23698,1.289065 1.71875,1.666669 1.09375,0.859376 2.16146,0.859376 h 0.46875 z"
       style="font-family:'B Titr';-inkscape-font-specification:'B Titr';fill:#000000"
       id="path1027" />
    <path
       d="m 92.320126,13.019053 q 0,1.341148 -0.690105,3.125004 -0.833334,2.161461 -1.953127,2.161461 -0.937501,0 -2.851566,-0.325521 l -2.226566,-0.377605 q -0.416667,-0.0651 -0.585938,0.234375 -0.117187,0.221355 -0.104167,0.664064 l 0.156251,4.648443 q 0.01302,0.572918 -0.403647,1.966148 -0.403646,1.393231 -0.729167,1.796878 -0.468751,0.572917 -1.119793,0.572917 -0.325522,0 -0.546876,-0.416667 -0.182292,-0.338542 -0.195313,-0.716147 -0.09115,-2.369794 -0.651042,-9.921887 -0.06511,-0.898439 0.677084,-1.940107 0.755209,-1.041668 1.627606,-1.302085 0.559897,-0.169271 1.158856,-0.05208 -0.247396,-0.286459 -0.247396,-1.276044 0,-1.067709 1.445314,-2.4348985 1.445314,-1.3802101 2.513024,-1.3802101 1.484377,0 3.098962,1.7447939 1.627606,1.7317727 1.627606,3.2291707 z m -2.591149,0.377605 q -0.807292,-0.729168 -1.83594,-1.210939 -0.807292,-0.377605 -1.197918,-0.377605 -0.651042,0 -1.041668,0.729168 -0.325521,0.61198 0.156251,0.677084 1.731773,0.247396 3.893234,0.729167 0.325521,0.07813 0.325521,-0.117187 0,-0.15625 -0.29948,-0.429688 z"
       style="font-family:'B Titr';-inkscape-font-specification:'B Titr';fill:#000000"
       id="path1029" />
  </g>
  <g
     aria-label="الحرام"
     id="text557"
     style="font-size:26.6667px;line-height:0ex;font-family:'B Titr';-inkscape-font-specification:'B Titr';direction:rtl;fill-rule:evenodd;stroke:#000000;stroke-width:2">
    <path
       d="m 70.390252,14.022351 q 0,1.145835 -0.351562,2.90365 -0.364584,1.84896 -0.807293,2.799482 -0.546876,1.145835 -1.028647,1.145835 -0.520834,0 -0.898439,-1.393231 Q 66.770456,17.511939 65.038683,5.9233827 L 68.97098,1.6395231 q 0.364584,-0.4036463 0.494792,-0.4036463 0.104167,0 0.182292,0.3645838 0.572917,2.5911491 0.703126,6.1849036 0.03906,1.0937514 0.03906,6.2369868 z"
       id="path1032" />
    <path
       d="m 63.293888,5.9884869 q 0.15625,0.351563 0.15625,0.5598966 0,0.2864587 -0.377604,0.2864587 -0.325522,0 -1.054689,-0.2213545 l 0.3125,8.0208433 q 0.130209,3.307296 -1.250001,4.921881 -1.06771,1.250002 -2.734379,1.250002 h -2.265628 v -5.911466 h 0.75521 q 0.989584,0 1.38021,-0.130208 0.638021,-0.208334 0.638021,-0.898439 0,-1.06771 -0.546875,-3.9974008 -0.585939,-3.125004 -1.276044,-5.5989654 l 3.268234,-2.8906287 q 0.442708,-0.39062548 0.585938,-0.39062548 0.15625,0 0.429688,0.59895908 z"
       id="path1034" />
    <path
       d="m 56.861588,20.806214 h -2.552086 q -3.51563,0 -4.583339,-4.010422 -1.458336,1.914065 -3.802088,2.981775 -2.252607,1.028647 -4.73959,1.028647 H 39.8824 v -5.911466 h 2.252607 q 3.789068,0 6.614592,-1.354168 -3.3724,-1.015626 -4.270839,-1.015626 -0.742188,0 -1.510418,0.690105 -0.768231,0.690105 -1.132814,0.690105 -0.742189,0 -0.742189,-1.06771 0,-1.171877 1.002606,-2.9427121 1.289064,-2.2786487 3.138024,-2.2786487 1.184898,0 4.101568,1.0026054 2.916671,1.0026054 4.479172,1.0026054 h 1.497398 q 0.468751,0 0.468751,0.1953128 0,0.1171876 -0.104167,0.4427092 l -1.263022,3.98438 h -2.421878 q 0.598959,0.651042 2.46094,0.651042 h 2.408857 z"
       id="path1036" />
    <path
       d="m 40.663651,20.819235 h -0.716147 q -0.533855,0 -0.963543,-0.312501 v 1.145835 q 0,1.432294 -0.794272,3.203129 -0.690105,1.549481 -1.510418,2.434899 -0.286459,0.312501 -0.794272,0.312501 H 29.77822 q -1.08073,0 -1.08073,-0.885418 0,-0.481772 0.455729,-0.703126 1.718753,-0.820314 4.244798,-2.552087 3.281254,-2.239586 3.281254,-3.190108 0,-0.781251 -2.929692,-3.515629 l 2.083336,-4.296881 q 0.195313,-0.390625 0.481772,-0.09115 1.236981,1.289064 1.718752,1.666669 1.093751,0.859376 2.161461,0.859376 h 0.468751 z"
       id="path1038" />
    <path
       d="m 27.59072,14.022351 q 0,1.145835 -0.351563,2.90365 -0.364584,1.84896 -0.807293,2.799482 -0.546876,1.145835 -1.028647,1.145835 -0.520834,0 -0.898439,-1.393231 Q 23.970923,17.511939 22.23915,5.9233827 l 3.932297,-4.2838596 q 0.364584,-0.4036463 0.494792,-0.4036463 0.104167,0 0.182292,0.3645838 0.572918,2.5911491 0.703126,6.1849036 0.03906,1.0937514 0.03906,6.2369868 z"
       id="path1040" />
    <path
       d="m 20.637585,13.189017 q 0,1.341147 -0.690105,3.125004 -0.833335,2.161461 -1.953128,2.161461 -0.937501,0 -2.851566,-0.325521 l -2.226565,-0.377605 q -0.416667,-0.0651 -0.585938,0.234375 -0.117188,0.221355 -0.104167,0.664064 l 0.15625,4.648443 q 0.01302,0.572917 -0.403646,1.966148 -0.403647,1.393231 -0.729168,1.796878 -0.46875,0.572917 -1.119793,0.572917 -0.3255212,0 -0.5468756,-0.416667 -0.1822919,-0.338542 -0.1953128,-0.716147 -0.091146,-2.369795 -0.6510425,-9.921887 -0.065104,-0.898439 0.6770842,-1.940107 0.7552097,-1.041668 1.6276067,-1.302085 0.559896,-0.169271 1.158855,-0.05208 -0.247396,-0.286459 -0.247396,-1.276044 0,-1.067709 1.445314,-2.4348987 1.445315,-1.38021 2.513024,-1.38021 1.484377,0 3.098963,1.7447938 1.627606,1.7317729 1.627606,3.2291709 z m -2.591149,0.377605 q -0.807293,-0.729168 -1.83594,-1.21094 -0.807293,-0.377604 -1.197918,-0.377604 -0.651043,0 -1.041668,0.729167 -0.325522,0.61198 0.15625,0.677085 1.731773,0.247396 3.893234,0.729167 0.325521,0.07813 0.325521,-0.117187 0,-0.156251 -0.299479,-0.429688 z"
       id="path1042" />
  </g>
</svg>
