<?xml version="1.0" encoding="UTF-8" standalone="no"?>
<svg xmlns:dc="http://purl.org/dc/elements/1.1/" xmlns:cc="http://creativecommons.org/ns#" xmlns:rdf="http://www.w3.org/1999/02/22-rdf-syntax-ns#" xmlns:svg="http://www.w3.org/2000/svg" xmlns="http://www.w3.org/2000/svg" xmlns:sodipodi="http://sodipodi.sourceforge.net/DTD/sodipodi-0.dtd" xmlns:inkscape="http://www.inkscape.org/namespaces/inkscape" version="1.0" width="610pt" height="206pt" viewBox="0 0 610 206" preserveAspectRatio="xMidYMid meet" id="svg26" sodipodi:docname="French-Navy-La-Fayette-class-frigate.svg" inkscape:version="0.92.4 (5da689c313, 2019-01-14)">
  <metadata id="metadata32">
    <rdf:RDF>
      <cc:Work rdf:about="">
        <dc:format>image/svg+xml</dc:format>
        <dc:type rdf:resource="http://purl.org/dc/dcmitype/StillImage"/>
        <dc:title/>
      </cc:Work>
    </rdf:RDF>
  </metadata>
  <defs id="defs30"/>
  <sodipodi:namedview pagecolor="#ffffff" bordercolor="#666666" borderopacity="1" objecttolerance="10" gridtolerance="10" guidetolerance="10" inkscape:pageopacity="0" inkscape:pageshadow="2" inkscape:window-width="1366" inkscape:window-height="715" id="namedview28" showgrid="false" inkscape:zoom="0.52210791" inkscape:cx="711.65122" inkscape:cy="113.50298" inkscape:window-x="-8" inkscape:window-y="-8" inkscape:window-maximized="1" inkscape:current-layer="svg26"/>
  <g id="g926" transform="matrix(1.5716808,0,0,1.5716808,0.97448958,4.5399103)">
    <g id="g887">
      <g transform="matrix(-0.1,0,0,-0.1,388.84308,130)" id="g24" style="fill:#000000;stroke:none">
        <path d="m 2271,1235 c -4,-64 -1,-96 10,-115 5,-9 6,-1 2,23 -4,28 -2,37 8,37 10,0 11,2 2,8 -6,4 -13,28 -16,52 l -4,45 z" id="path2" inkscape:connector-curvature="0"/>
        <path d="m 2266,1088 c 3,-4 9,-8 15,-8 5,0 9,4 9,8 0,5 -7,9 -15,9 -8,0 -12,-4 -9,-9 z" id="path4" inkscape:connector-curvature="0"/>
        <path d="m 2342,1005 c 0,-16 2,-22 5,-12 2,9 2,23 0,30 -3,6 -5,-1 -5,-18 z" id="path6" inkscape:connector-curvature="0"/>
        <path d="m 2260,1000 c 0,-5 8,-14 18,-20 15,-10 15,-11 -5,-7 -20,4 -21,3 -10,-20 8,-17 7,-50 -1,-124 -7,-56 -15,-105 -18,-110 -3,-5 -16,-9 -30,-9 h -25 l 22,-29 c 19,-26 20,-37 14,-100 -4,-39 -11,-71 -15,-71 -5,0 -11,-17 -13,-37 l -4,-38 -1,36 c -3,62 -62,64 -62,3 0,-19 -4,-34 -10,-34 -9,0 -15,72 -11,131 2,30 -19,52 -43,43 -14,-5 -16,-18 -11,-90 l 6,-84 h -55 c -55,0 -56,0 -56,29 0,17 -5,33 -12,37 -7,4 -8,3 -4,-4 5,-8 -1,-12 -14,-12 -14,0 -19,4 -14,13 5,8 4,9 -4,2 -6,-5 -12,-23 -15,-40 l -4,-30 -2,31 c -1,27 -5,32 -31,36 -28,4 -30,3 -30,-29 0,-26 -4,-33 -20,-33 -11,0 -20,-7 -20,-15 0,-11 -12,-15 -50,-15 -38,0 -50,4 -50,15 0,8 9,15 20,15 17,0 20,7 20,49 0,43 -3,50 -22,55 -13,2 -3,4 20,2 39,-1 47,2 72,34 l 27,35 -47,2 c -35,1 -50,-3 -54,-13 -3,-9 -10,-12 -16,-9 -6,4 -7,11 -4,17 4,6 1,9 -7,6 -8,-2 -15,-19 -17,-36 -3,-29 -6,-32 -38,-32 -38,0 -41,-5 -19,-30 13,-14 13,-23 2,-61 l -13,-44 -61,-3 c -52,-2 -62,0 -66,15 -4,17 -5,17 -6,1 -1,-16 -13,-18 -110,-18 h -110 l 6,34 c 4,29 2,34 -18,39 -27,7 -61,4 -57,-5 2,-3 -3,-12 -11,-21 -11,-14 -11,-18 3,-23 34,-13 12,-20 -71,-23 -93,-2 -114,-10 -94,-35 8,-9 10,-31 5,-65 -4,-28 -6,-54 -4,-57 1,-4 -3,-10 -10,-14 -6,-4 -201,-6 -433,-6 -410,1 -422,0 -432,-19 -6,-11 -26,-24 -46,-30 L 54,175 78,113 102,50 h 1768 1769 l 43,51 c 24,29 42,55 41,59 -1,4 10,7 25,6 19,-1 27,4 27,15 0,9 18,37 39,64 l 39,47 -29,-2 c -16,-1 -152,-2 -301,-1 -240,1 -273,3 -273,17 0,9 -5,12 -12,8 -7,-4 -8,-3 -4,4 4,7 16,12 27,12 11,0 17,5 14,10 -3,6 -19,10 -35,10 -16,0 -32,5 -35,10 -9,14 -58,13 -73,-2 -7,-7 -12,-25 -12,-40 0,-33 -4,-34 -32,-8 -15,13 -25,17 -32,10 -14,-14 -119,-13 -134,2 -9,9 -12,9 -12,0 0,-8 -89,-11 -337,-9 -337,1 -337,1 -69,4 l 268,3 -6,23 c -3,12 -6,28 -6,35 0,9 -61,13 -267,14 l -268,3 263,2 262,3 -6,28 c -4,15 -11,38 -16,52 -5,14 -10,27 -11,30 -1,3 -16,4 -33,2 -18,-2 -35,2 -39,7 -3,6 -11,9 -16,6 -5,-4 -9,-2 -9,4 0,5 10,12 23,14 12,2 0,4 -28,4 -27,1 -42,-1 -32,-4 9,-2 17,-11 17,-19 0,-22 -66,-19 -74,4 -3,9 -9,23 -12,30 -3,7 0,11 6,10 7,-2 14,2 17,9 3,8 -6,11 -24,10 -20,-2 -27,-8 -25,-20 2,-10 -5,-20 -15,-24 -10,-4 -22,-12 -26,-20 -5,-8 -26,-13 -52,-13 -39,0 -45,3 -51,24 -4,16 -11,23 -20,19 -8,-3 -14,0 -14,7 0,6 4,9 9,5 15,-8 22,11 15,39 -4,16 -11,23 -20,19 -8,-3 -14,0 -14,6 0,6 6,10 13,8 18,-3 9,54 -11,70 -15,12 -14,13 6,3 13,-6 22,-20 22,-33 0,-13 3,-17 8,-11 4,6 31,15 59,19 52,7 75,21 55,34 -6,3 -12,20 -14,36 -2,22 -8,30 -23,30 -15,0 -21,-8 -23,-32 -3,-31 -6,-33 -43,-33 -21,0 -39,3 -40,8 0,4 -2,18 -4,32 -13,92 -17,198 -7,204 8,4 5,13 -8,26 -22,22 -30,25 -30,10 z m 363,-515 c -2,-6 -15,-11 -28,-11 -14,0 -25,5 -25,11 0,5 13,10 29,10 16,0 27,-5 24,-10 z m -63,-5 c 0,-5 -4,-10 -10,-10 -5,0 -10,5 -10,10 0,6 5,10 10,10 6,0 10,-4 10,-10 z m 110,0 c 0,-5 -4,-10 -10,-10 -5,0 -10,5 -10,10 0,6 5,10 10,10 6,0 10,-4 10,-10 z m 40,0 c 0,-5 -4,-10 -10,-10 -5,0 -10,5 -10,10 0,6 5,10 10,10 6,0 10,-4 10,-10 z m -789,-20 c 6,0 7,5 4,10 -3,6 -1,10 5,10 6,0 10,-8 8,-17 -5,-25 -32,-23 -35,2 -2,11 0,14 3,8 3,-7 10,-13 15,-13 z m 381,-14 c -3,-6 1,-5 10,2 13,10 17,10 22,-4 10,-27 7,-34 -19,-34 -17,0 -25,6 -26,18 -1,16 -2,16 -6,0 -6,-22 -53,-25 -53,-3 0,8 7,15 15,15 8,0 15,4 15,8 0,4 11,8 24,8 15,0 22,-4 18,-10 z m 159,2 c 31,5 31,4 13,-17 -19,-22 -58,-28 -69,-11 -4,6 -1,18 6,27 7,8 15,11 16,6 2,-5 17,-7 34,-5 z m -598,-5 c -7,-2 -19,-2 -25,0 -7,3 -2,5 12,5 14,0 19,-2 13,-5 z m 234,1 c -3,-3 -12,-4 -19,-1 -8,3 -5,6 6,6 11,1 17,-2 13,-5 z m -427,-19 c 0,-9 -9,-15 -25,-15 -16,0 -25,6 -25,15 0,9 9,15 25,15 16,0 25,-6 25,-15 z m 830,-5 c 0,-5 -4,-10 -10,-10 -5,0 -10,5 -10,10 0,6 5,10 10,10 6,0 10,-4 10,-10 z m -280,-10 c 0,-6 -67,-10 -180,-10 -113,0 -180,4 -180,10 0,6 67,10 180,10 113,0 180,-4 180,-10 z m -427,-17 c -34,-2 -93,-2 -130,0 -37,2 -9,3 62,3 72,0 102,-1 68,-3 z m 427,-58 v -55 h -180 -180 v 55 55 h 180 180 z m -572,-22 c -114,-2 -303,-2 -420,0 -117,1 -24,2 207,2 231,0 327,-1 213,-2 z m 1712,-43 c 0,-5 -7,-10 -16,-10 -8,0 -12,5 -9,10 3,6 10,10 16,10 5,0 9,-4 9,-10 z m 220,0 c 0,-5 -7,-10 -15,-10 -8,0 -15,5 -15,10 0,6 7,10 15,10 8,0 15,-4 15,-10 z m 70,0 c 0,-5 -7,-10 -15,-10 -8,0 -15,5 -15,10 0,6 7,10 15,10 8,0 15,-4 15,-10 z M 1890,256 c 0,-3 -4,-8 -10,-11 -5,-3 -10,-1 -10,4 0,6 5,11 10,11 6,0 10,-2 10,-4 z m -285,-16 c 3,-5 1,-10 -4,-10 -6,0 -11,5 -11,10 0,6 2,10 4,10 3,0 8,-4 11,-10 z m 1942,-7 c -20,-2 -52,-2 -70,0 -17,2 0,4 38,4 39,0 53,-2 32,-4 z M 182,205 c 0,-5 -5,-11 -11,-13 -6,-2 -11,4 -11,13 0,9 5,15 11,13 6,-2 11,-8 11,-13 z m 48,-6 c 0,-5 -7,-9 -15,-9 -15,0 -20,12 -9,23 8,8 24,-1 24,-14 z m 50,0 c 0,-5 -7,-9 -15,-9 -15,0 -20,12 -9,23 8,8 24,-1 24,-14 z m 100,6 c 0,-8 -7,-15 -15,-15 -16,0 -20,12 -8,23 11,12 23,8 23,-8 z m 2928,-2 c -10,-2 -28,-2 -40,0 -13,2 -5,4 17,4 22,1 32,-1 23,-4 z m 302,-3 c 0,-5 -13,-10 -30,-10 -16,0 -30,5 -30,10 0,6 14,10 30,10 17,0 30,-4 30,-10 z m 80,0 c 0,-5 -13,-10 -30,-10 -16,0 -30,5 -30,10 0,6 14,10 30,10 17,0 30,-4 30,-10 z m 70,-4 c 0,-2 -7,-7 -16,-10 -8,-3 -12,-2 -9,4 6,10 25,14 25,6 z M 1700,119 c 0,-37 -4,-49 -15,-49 -11,0 -15,12 -15,48 0,27 3,52 6,55 15,14 24,-7 24,-54 z m 70,0 c 0,-27 -4,-49 -10,-49 -5,0 -10,25 -10,56 0,34 4,53 10,49 6,-3 10,-28 10,-56 z m 740,6 c 0,-30 -4,-55 -10,-55 -11,0 -14,93 -3,103 12,12 13,8 13,-48 z m 547,18 c -3,-10 -5,-4 -5,12 0,17 2,24 5,18 2,-7 2,-21 0,-30 z m -2821,0 c -9,-10 -35,-13 -40,-4 -3,4 7,8 21,9 15,1 23,-1 19,-5 z m 84,-1 c 0,-5 -16,-9 -35,-9 -19,0 -35,4 -35,9 0,4 16,8 35,8 19,0 35,-4 35,-8 z" id="path8" inkscape:connector-curvature="0"/>
        <path d="m 1738,693 c -42,-6 -36,-33 8,-33 21,0 33,-4 29,-10 -3,-5 3,-10 15,-10 12,0 18,5 15,10 -4,6 7,10 24,10 38,0 40,17 5,30 -25,10 -45,11 -96,3 z" id="path10" inkscape:connector-curvature="0"/>
        <path d="m 2135,580 c -9,-14 14,-52 28,-47 7,2 13,16 15,30 3,21 -1,27 -17,27 -11,0 -23,-4 -26,-10 z" id="path12" inkscape:connector-curvature="0"/>
        <path d="m 637,264 c 4,-11 53,-7 53,5 0,3 -13,6 -29,6 -17,0 -27,-5 -24,-11 z" id="path14" inkscape:connector-curvature="0"/>
        <path d="m 462,265 c 10,-11 48,-14 48,-4 0,5 -12,9 -27,9 -14,0 -24,-2 -21,-5 z" id="path16" inkscape:connector-curvature="0"/>
        <path d="m 545,260 c 3,-5 10,-10 16,-10 5,0 9,5 9,10 0,6 -7,10 -16,10 -8,0 -12,-4 -9,-10 z" id="path18" inkscape:connector-curvature="0"/>
        <path d="m 585,260 c -4,-6 3,-10 14,-10 25,0 27,6 6,13 -8,4 -17,2 -20,-3 z" id="path20" inkscape:connector-curvature="0"/>
        <path d="m 37,220 c 4,-16 14,-20 43,-20 33,0 50,12 50,36 0,2 -22,4 -49,4 -44,0 -49,-2 -44,-20 z" id="path22" inkscape:connector-curvature="0"/>
      </g>
      <rect style="opacity:1;fill:#000000;fill-opacity:1;stroke:none;stroke-width:1.41732287;stroke-miterlimit:4;stroke-dasharray:none" id="rect839" width="153.63188" height="8.6338587" x="16.759842" y="103.33662" ry="0.1043955"/>
      <rect style="opacity:1;fill:#000000;fill-opacity:1;stroke:none;stroke-width:2.13337421;stroke-miterlimit:4;stroke-dasharray:none" id="rect841" width="167.78871" height="33.039146" x="114.62745" y="90.496674" ry="0.15490945"/>
      <rect style="opacity:1;fill:#000000;fill-opacity:1;stroke:none;stroke-width:1.64157772;stroke-miterlimit:4;stroke-dasharray:none" id="rect843" width="87.690559" height="15.854565" x="291.26575" y="106.52732" ry="0"/>
      <path style="fill:#000000;stroke:none;stroke-width:0.75px;stroke-linecap:butt;stroke-linejoin:miter;stroke-opacity:1" d="m 383.44308,112.5 1.52224,-4.02116 -9.45597,0.12697 -1.46014,4.38041 z" id="path845" inkscape:connector-curvature="0" sodipodi:nodetypes="ccccc"/>
      <rect style="opacity:1;fill:#000000;fill-opacity:1;stroke:none;stroke-width:1.78468633;stroke-miterlimit:4;stroke-dasharray:none" id="rect847" width="3.2210848" height="5.3961616" x="208.23792" y="63.867344"/>
      <rect style="opacity:1;fill:#000000;fill-opacity:1;stroke:none;stroke-width:1.41732287;stroke-miterlimit:4;stroke-dasharray:none" id="rect851" width="20.649467" height="5.5663781" x="199.31224" y="58.983791"/>
      <rect style="opacity:1;fill:#000000;fill-opacity:1;stroke:none;stroke-width:2.02608252;stroke-miterlimit:4;stroke-dasharray:none" id="rect855" width="94.238007" height="9.7564602" x="114.23183" y="87.563507"/>
      <rect style="opacity:1;fill:#000000;fill-opacity:1;stroke:none;stroke-width:1.41732287;stroke-miterlimit:4;stroke-dasharray:none" id="rect857" width="12.748801" height="7.3619838" x="75.954132" y="110.96658"/>
      <rect style="opacity:1;fill:#000000;fill-opacity:1;stroke:none;stroke-width:1.41732287;stroke-miterlimit:4;stroke-dasharray:none" id="rect859" width="39.50333" height="7.0028629" x="21.008587" y="101.80899"/>
      <rect style="opacity:1;fill:#000000;fill-opacity:1;stroke:none;stroke-width:1.43482137;stroke-miterlimit:4;stroke-dasharray:none" id="rect861" width="41.899605" height="8.6338587" x="81.704231" y="97.115158"/>
    </g>
    <rect y="80.024834" x="117.3044" height="9.6962719" width="49.020039" id="rect889" style="opacity:1;fill:#000000;fill-opacity:1;stroke:none;stroke-width:1.79607987;stroke-miterlimit:4;stroke-dasharray:none"/>
    <path inkscape:connector-curvature="0" id="path893" d="m 154.26674,78.069886 4.18995,-23.743114 4.18997,1.142716 0.50787,31.234256 z" style="fill:#000000;stroke:none;stroke-width:0.75px;stroke-linecap:butt;stroke-linejoin:miter;stroke-opacity:1"/>
    <path inkscape:connector-curvature="0" id="path895" d="m 155.20768,63.562586 1.86294,2.132282 2.53629,-6.890637 -3.90544,0.02245 z" style="fill:#000000;stroke:none;stroke-width:0.75px;stroke-linecap:butt;stroke-linejoin:miter;stroke-opacity:1"/>
    <rect y="11.490018" x="160.16805" height="23.791779" width="1.7956058" id="rect897" style="opacity:1;fill:#000000;fill-opacity:1;stroke:none;stroke-width:2.11282015;stroke-miterlimit:4;stroke-dasharray:none"/>
  </g>
</svg>